<?xml version="1.0" encoding="UTF-8" standalone="no"?>
<svg
   xmlns:dc="http://purl.org/dc/elements/1.1/"
   xmlns:cc="http://creativecommons.org/ns#"
   xmlns:rdf="http://www.w3.org/1999/02/22-rdf-syntax-ns#"
   xmlns:svg="http://www.w3.org/2000/svg"
   xmlns="http://www.w3.org/2000/svg"
   xmlns:sodipodi="http://sodipodi.sourceforge.net/DTD/sodipodi-0.dtd"
   xmlns:inkscape="http://www.inkscape.org/namespaces/inkscape"
   viewBox="0 0 687 393"
   height="393"
   width="687"
   xml:space="preserve"
   id="svg2"
   version="1.1"
   inkscape:version="0.91 r13725"
   sodipodi:docname="JD_Irving_LogoCR.svg"><sodipodi:namedview
     pagecolor="#ffffff"
     bordercolor="#666666"
     borderopacity="1"
     objecttolerance="10"
     gridtolerance="10"
     guidetolerance="10"
     inkscape:pageopacity="0"
     inkscape:pageshadow="2"
     inkscape:window-width="1280"
     inkscape:window-height="744"
     id="namedview4684"
     showgrid="false"
     inkscape:zoom="2.3234459"
     inkscape:cx="289.58391"
     inkscape:cy="349.96729"
     inkscape:window-x="-4"
     inkscape:window-y="-4"
     inkscape:window-maximized="1"
     inkscape:current-layer="svg2" /><metadata
     id="metadata8"><rdf:RDF><cc:Work
         rdf:about=""><dc:format>image/svg+xml</dc:format><dc:type
           rdf:resource="http://purl.org/dc/dcmitype/StillImage" /><dc:title></dc:title></cc:Work></rdf:RDF></metadata><defs
     id="defs6"><clipPath
       id="clipPath24"
       clipPathUnits="userSpaceOnUse"><path
         id="path22"
         d="m 0,334.416 595.28,0 L 595.28,0 0,0 Z"
         inkscape:connector-curvature="0" /></clipPath></defs><path
     inkscape:connector-curvature="0"
     d="m 43.312207,144.3448 -26.415999,0 0,104.464 26.415999,0 z"
     style="fill:#30a064;fill-opacity:1;fill-rule:nonzero;stroke:none"
     id="path16" /><g
     id="g18"
     transform="matrix(1.3333333,0,0,-1.3333333,-54.374457,415.44213)"><g
       id="g20"
       clip-path="url(#clipPath24)"><g
         id="g26"
         transform="translate(122.8266,168.8459)"><path
           inkscape:connector-curvature="0"
           d="m 0,0 0,20.946 24.691,0 c 11.621,0 13.862,-6.103 13.862,-10.252 C 38.553,2.943 33.539,0 23.241,0 Z m -19.407,-43.864 19.407,0 0,30.659 20.469,0 c 14.654,0 15.447,-4.141 15.447,-14.834 0,-8.075 0.791,-12.116 2.106,-15.825 l 21.927,0 0,2.07 c -4.231,1.315 -4.231,4.15 -4.231,15.609 0,14.618 -4.221,17.013 -12.007,19.857 9.37,2.61 14.654,10.037 14.654,18.66 0,6.769 -4.627,22.152 -29.84,22.152 l -47.932,0 z"
           style="fill:#30a064;fill-opacity:1;fill-rule:evenodd;stroke:none"
           id="path28" /></g><g
         id="g30"
         transform="translate(239.6262,143.9634)"><path
           inkscape:connector-curvature="0"
           d="m 0,0 -0.261,0 -20.334,59.364 -21.262,0 31.955,-78.348 18.876,0 32.225,78.348 -20.604,0 z"
           style="fill:#30a064;fill-opacity:1;fill-rule:nonzero;stroke:none"
           id="path32" /></g><path
         inkscape:connector-curvature="0"
         d="m 320.588,203.323 -19.803,0 0,-78.348 19.803,0 z"
         style="fill:#30a064;fill-opacity:1;fill-rule:nonzero;stroke:none"
         id="path34" /><g
         id="g36"
         transform="translate(409.8578,148.7656)"><path
           inkscape:connector-curvature="0"
           d="m 0,0 -0.27,0 -37.635,54.557 -20.856,0 0,-78.348 18.488,0 0,55.872 0.262,0 38.687,-55.872 19.804,0 0,78.348 -18.48,0 z"
           style="fill:#30a064;fill-opacity:1;fill-rule:nonzero;stroke:none"
           id="path38" /></g><g
         id="g40"
         transform="translate(504.3825,154.0053)"><path
           inkscape:connector-curvature="0"
           d="m 0,0 22.053,0 c -4.095,-15.824 -18.615,-17.238 -22.98,-17.238 -13.467,0 -27.59,5.563 -27.59,26.951 0,20.082 13.071,28.147 27.202,28.147 13.998,0 20.722,-9.812 20.722,-12.872 l 19.812,0 C 38.166,35.79 26.68,51.398 -2.377,51.398 -34.332,51.506 -48.725,31.316 -48.725,9.929 c 0,-27.491 20.73,-41.029 43.576,-41.029 17.301,0 24.556,7.093 29.579,11.891 l 1.98,-9.821 13.205,0 0,42.235 -39.615,0 z"
           style="fill:#30a064;fill-opacity:1;fill-rule:nonzero;stroke:none"
           id="path42" /></g><g
         id="g44"
         transform="translate(42.2254,219.3897)"><path
           inkscape:connector-curvature="0"
           d="M 0,0 512.36,0 253.803,90.626 Z"
           style="fill:#30a064;fill-opacity:1;fill-rule:nonzero;stroke:none"
           id="path46" /></g><g
         id="g48"
         transform="translate(554.5863,108.8345)"><path
           inkscape:connector-curvature="0"
           d="m 0,0 -512.36,0 259.681,-90.437 z"
           style="fill:#30a064;fill-opacity:1;fill-rule:nonzero;stroke:none"
           id="path50" /></g></g></g></svg>